<?xml version="1.0" encoding="UTF-8" standalone="no"?><!DOCTYPE svg PUBLIC "-//W3C//DTD SVG 1.1//EN" "http://www.w3.org/Graphics/SVG/1.1/DTD/svg11.dtd"><svg width="100%" height="100%" viewBox="0 0 2084 2084" version="1.1" xmlns="http://www.w3.org/2000/svg" xmlns:xlink="http://www.w3.org/1999/xlink" xml:space="preserve" xmlns:serif="http://www.serif.com/" style="fill-rule:evenodd;clip-rule:evenodd;stroke-linejoin:round;stroke-miterlimit:2;"><g><g><g><g><g><path d="M562.674,1717.911c0,53.469 -9.599,97.438 -28.779,131.917c-19.189,34.479 -46.431,59.97 -81.715,76.464c-35.266,16.476 -77.018,24.71 -125.256,24.71c-29.553,0 -57.689,-0.754 -84.399,-2.263c-26.72,-1.49 -45.778,-3.232 -57.186,-5.244c-10.885,-1.482 -16.328,-7.722 -16.328,-18.712l0,-514.954c0,-10.99 5.443,-17.239 16.328,-18.748c11.407,-1.984 30.466,-3.717 57.186,-5.208c26.71,-1.508 54.846,-2.263 84.399,-2.263c48.239,0 89.991,8.117 125.256,24.351c35.284,16.234 62.526,41.59 81.715,76.069c19.18,34.479 28.779,78.708 28.779,132.671l0,101.209Zm-70.792,0l0,-101.209c0,-45.469 -7.269,-80.818 -21.808,-106.058c-14.52,-25.231 -34.222,-42.973 -59.124,-53.226c-24.884,-10.245 -52.889,-15.372 -84.026,-15.372c-18.145,0 -33.83,0.135 -47.046,0.395c-13.225,0.242 -26.319,0.862 -39.292,1.868l0,446.715c12.451,0.503 25.405,0.889 38.882,1.149c13.495,0.242 29.31,0.359 47.456,0.359c31.137,0 59.143,-5.244 84.026,-15.731c24.902,-10.487 44.604,-28.346 59.124,-53.586c14.539,-25.231 21.808,-60.338 21.808,-105.304Z" style="fill:#fff9f3;fill-rule:nonzero;"/></g></g></g><g><g><g><path d="M1022.484,1923.274c0,9.482 -4.678,14.977 -14.017,16.485c-19.189,2.999 -40.587,5.621 -64.194,7.865c-23.588,2.245 -53.793,3.376 -90.625,3.376c-24.38,0 -48.5,-4.121 -72.358,-12.355c-23.858,-8.261 -45.517,-21.495 -64.977,-39.722c-19.441,-18.245 -34.995,-42.236 -46.673,-71.974c-11.687,-29.738 -17.521,-66.084 -17.521,-109.039l0,-100.455c0,-45.469 6.086,-83.306 18.267,-113.528c12.199,-30.241 28.416,-54.097 48.649,-71.579c20.224,-17.5 42.656,-29.998 67.288,-37.496c24.651,-7.488 49.432,-11.241 74.334,-11.241c36.309,0 66.393,1.131 90.252,3.376c23.858,2.227 43.038,4.597 57.558,7.111c3.625,0.503 6.729,1.508 9.32,3.017c2.61,1.49 3.914,4.229 3.914,8.225l0,37.46c0,5.01 -3.383,7.506 -10.14,7.506l-3.094,0c-22.815,-2.011 -44.865,-3.385 -66.132,-4.13c-21.277,-0.736 -48.5,-1.113 -81.678,-1.113c-23.858,0 -46.3,5.01 -67.325,15.013c-21.007,9.984 -37.987,27.475 -50.96,52.472c-12.954,24.979 -19.422,59.943 -19.422,104.909l0,100.455c0,40.97 5.825,74.201 17.484,99.701c11.678,25.482 27.493,43.96 47.456,55.453c19.981,11.493 41.901,17.239 65.76,17.239c23.858,0 43.821,-0.62 59.907,-1.868c16.076,-1.266 28.779,-2.155 38.099,-2.658l0,-214.343c0,-3.996 1.286,-7.488 3.877,-10.487c2.61,-3.017 5.983,-4.525 10.14,-4.525l42.013,0c4.147,0 7.651,1.508 10.513,4.525c2.852,2.999 4.287,6.492 4.287,10.487l0,251.838Z" style="fill:#fff9f3;fill-rule:nonzero;"/></g></g></g><g><g><g><path d="M1514.942,1435.329c0,7.973 -4.939,11.96 -14.8,11.96l-151.687,0l0,483.492c0,3.502 -1.305,6.878 -3.914,10.128c-2.591,3.232 -5.955,4.849 -10.103,4.849l-42.796,0c-3.635,0 -6.878,-1.49 -9.73,-4.489c-2.861,-2.99 -4.287,-6.483 -4.287,-10.487l0,-483.492l-151.687,0c-4.157,0 -7.791,-0.988 -10.923,-2.981c-3.113,-2.011 -4.66,-5.001 -4.66,-8.979l0,-33.006c0,-3.996 1.547,-7.237 4.66,-9.733c3.131,-2.487 6.766,-3.735 10.923,-3.735l374.204,0c9.86,0 14.8,4.489 14.8,13.468l0,33.006Z" style="fill:#fff9f3;fill-rule:nonzero;"/></g></g></g><g><g><g><path d="M1928.066,1933.762c0,6.016 -2.6,9.509 -7.791,10.487c-9.87,1.508 -28.425,2.999 -55.657,4.489c-27.213,1.508 -59.236,2.263 -96.067,2.263c-20.755,0 -40.988,-1.499 -60.69,-4.489c-19.711,-2.99 -37.484,-9.23 -53.309,-18.712c-15.806,-9.5 -28.388,-23.498 -37.726,-41.985c-9.32,-18.505 -13.98,-43.251 -13.98,-74.237l0,-407.746c0,-3.996 1.547,-7.488 4.66,-10.487c3.103,-2.99 6.729,-4.489 10.885,-4.489l39.702,0c4.147,0 7.773,1.499 10.885,4.489c3.103,2.999 4.66,6.492 4.66,10.487l0,407.746c0,18.99 2.199,34.227 6.598,45.72c4.418,11.493 13.504,19.744 27.251,24.746c13.737,5.01 34.352,7.506 61.845,7.506l150.159,0c5.713,0 8.574,2.999 8.574,8.979l0,35.233Z" style="fill:#fff9f3;fill-rule:nonzero;"/></g></g></g></g></g><g><g><g><g><g><path d="M1026.281,802.905c0,153.643 -42.916,268.893 -128.712,345.732c-85.814,76.856 -203.933,115.267 -354.358,115.267c-41.356,0 -82.985,-1.241 -124.867,-3.705c-41.9,-2.429 -80.01,-5.347 -114.346,-8.738c-34.355,-3.39 -62.107,-6.536 -83.293,-9.437c-14.13,-1.957 -24.995,-6.815 -32.577,-14.609c-7.546,-7.777 -11.319,-19.939 -11.319,-36.488l0,-964.288c0,-16.532 3.773,-28.677 11.319,-36.419c7.582,-7.777 18.447,-12.652 32.577,-14.609c21.186,-3.914 48.938,-7.305 83.293,-10.206c34.337,-2.936 72.446,-5.61 114.346,-8.039c41.882,-2.412 83.511,-3.635 124.867,-3.635c150.424,0 268.543,38.428 354.358,115.267c85.796,76.804 128.712,192.054 128.712,345.732l0,188.174Zm-258.948,0l0,-188.174c0,-66.127 -9.106,-117.172 -27.281,-153.154c-18.139,-36.017 -44.113,-61.059 -77.924,-75.144c-33.811,-14.12 -73.462,-21.18 -118.917,-21.18c-19.154,0 -39.089,0.262 -59.785,0.769c-20.714,0.472 -36.604,1.188 -47.669,2.167l0,681.258c11.065,0.979 26.954,1.73 47.669,2.237c20.696,0.472 40.631,0.699 59.785,0.699c45.456,0 85.107,-7.06 118.917,-21.18c33.811,-14.12 59.785,-39.389 77.924,-75.843c18.175,-36.488 27.281,-87.307 27.281,-152.455Z" style="fill:#fff9f3;fill-rule:nonzero;"/></g></g></g><g><g><g><path d="M1931.764,344.842c0,7.794 -3.301,14.365 -9.867,19.712c-6.53,5.312 -13.84,7.969 -21.912,7.969l-245.308,0l0,849.091c0,7.794 -3.047,14.592 -9.142,20.411c-6.058,5.837 -13.114,8.738 -21.186,8.738l-198.365,0c-8.09,0 -15.146,-2.901 -21.186,-8.738c-6.058,-5.819 -9.069,-12.617 -9.069,-20.411l0,-849.091l-246.831,0c-8.09,0 -15.146,-2.656 -21.186,-7.969c-6.058,-5.347 -9.069,-11.918 -9.069,-19.712l0,-150.288c0,-7.777 3.011,-14.33 9.069,-19.642c6.04,-5.347 13.096,-8.039 21.186,-8.039l751.087,0c8.072,0 15.382,2.691 21.912,8.039c6.566,5.312 9.867,11.866 9.867,19.642l0,150.288Z" style="fill:#fff9f3;fill-rule:nonzero;"/></g></g></g></g></g></svg>